# xmcd CD database file
#
# Track frame offsets:
#	182
#	13430
#	27265
#	39015
#	52397
#	66847
#	78475
#	91357
#	103930
#	119255
#	133690
#	146719
#	161075
#	175448
#	189045
#	201468
#	214387
#	227111
#	240064
#	253779
#
# Disc length: 3564 seconds
#
# Revision: 3
# Processed by: cddbd v1.5PL3 Copyright (c) Steve Scherf et al.
# Submitted via: CDex 1.51
#
DISCID=260dea14
DTITLE=Various Artist - Early Jazz - 1917-1923 - CD2
DYEAR=2000
DGENRE=Jazz
TTITLE0=Johnny Dunn's Original Jazz Hounds: Bugle Blues [1921]
TTITLE1=Original Jazz Hounds (Sam Wooding Orch.): Moanful Blues [1922]
TTITLE2=Husk O'Hare's Super Orchestra Of Chicago: San [1922]
TTITLE3=The Virginians: Memphis Blues [1922]
TTITLE4=Spikes' Seven Pods Of Pepper Orchestra (Ory's Sunshine Orch.): Ory's Creole Trombone [1922]
TTITLE5=Friars Society Orchestra: Panama [1922]
TTITLE6=The Cotton Pickers: I Wish I Could Shimmy Like My Sister Kate [1922]
TTITLE7=The Georgians: Chicago [1922]
TTITLE8=Indiana Syncopators: Bees Knees [1923]
TTITLE9=Ted Lewis Jazz Band: Tiger Rag [1923]
TTITLE10=The Benson Orchestra Of Chicago: Think Of Me [1923]
TTITLE11=Ted Claire Snappy Bits Band: Four O' Clock Blues [1923]
TTITLE12=Isham Jones And His Orchestra: Frankie And Johnny [1923]
TTITLE13=New Orleans Rhythm Kings: Tin Roof Blues [1923]
TTITLE14=(Fletcher) Henderson's Dance Players: Farewell Blues [1923]
TTITLE15=Whitey Kaufman's Original Pennsylvania Serenaders: You Tell Her - I Stutter [1923]
TTITLE16=Thomas Morris Past Jazz Masters: Lonesome Journey Blues [1923]
TTITLE17=Albert Short And His Tivoli Syncopators: Bugle Call Rag [1923]
TTITLE18=Original Memphis Melody Boys: There's No Girl Like My Girl [1923]
TTITLE19=King Oliver's Creole Jazz Band: Snake Rag (version 1) [1923]
EXTD=YEAR: 2000
EXTT0=
EXTT1=
EXTT2=
EXTT3=
EXTT4=
EXTT5=
EXTT6=
EXTT7=
EXTT8=
EXTT9=
EXTT10=
EXTT11=
EXTT12=
EXTT13=
EXTT14=
EXTT15=
EXTT16=
EXTT17=
EXTT18=
EXTT19=
PLAYORDER=
